<?xml version="1.0" encoding="utf-8"?>
<!-- Generator: Adobe Illustrator 15.0.0, SVG Export Plug-In . SVG Version: 6.00 Build 0)  -->
<!DOCTYPE svg PUBLIC "-//W3C//DTD SVG 1.1//EN" "http://www.w3.org/Graphics/SVG/1.1/DTD/svg11.dtd">
<svg version="1.1" id="图层_1" xmlns="http://www.w3.org/2000/svg" xmlns:xlink="http://www.w3.org/1999/xlink" x="0px" y="0px"
	 width="15px" height="15px" viewBox="0 0 15 15" enable-background="new 0 0 15 15" xml:space="preserve">
<rect x="-412.5" y="-710.5" fill="none" width="664.8" height="666.96"/>
<path fill="#9BADC7" d="M1.5,2.166v11.667C1.5,14.479,2.037,15,2.7,15h9.956c0.544,0,0.844-0.328,0.844-0.93
	c0-0.402-0.355-0.82-0.844-0.82H3.862c-0.33,0-0.6-0.264-0.6-0.584s0.27-0.584,0.6-0.584H12.3c0.663,0,1.2-0.521,1.2-1.166v-8.75
	C13.5,1.521,12.963,1,12.3,1H8.1v5.538c0,0.076-0.029,0.151-0.086,0.21c-0.117,0.113-0.311,0.113-0.427,0
	C7.509,6.67,6.3,5.692,6.3,5.692S5.091,6.67,5.013,6.748c-0.116,0.113-0.31,0.113-0.426,0C4.53,6.689,4.5,6.614,4.5,6.538V1H2.7
	C2.037,1,1.5,1.521,1.5,2.166L1.5,2.166z"/>
</svg>
