<?xml version="1.0" encoding="utf-8"?>
<!-- Generator: Adobe Illustrator 15.0.0, SVG Export Plug-In . SVG Version: 6.00 Build 0)  -->
<!DOCTYPE svg PUBLIC "-//W3C//DTD SVG 1.1//EN" "http://www.w3.org/Graphics/SVG/1.1/DTD/svg11.dtd">
<svg version="1.1" id="图层_1" xmlns="http://www.w3.org/2000/svg" xmlns:xlink="http://www.w3.org/1999/xlink" x="0px" y="0px"
	 width="15px" height="15px" viewBox="0 0 15 15" enable-background="new 0 0 15 15" xml:space="preserve">
<rect x="-412.5" y="-710.5" fill="none" width="664.8" height="666.96"/>
<g>
	<g>
		<path fill="#9BADC7" d="M7.5,1C3.91,1,1,3.91,1,7.501c0,3.59,2.908,6.5,6.5,6.5H14v-6.5C14.003,3.913,11.089,1,7.5,1z M5,9.001
			c-0.553,0-1-0.446-1-1c0-0.553,0.447-1,1-1s1,0.447,1,1C6,8.555,5.553,9.001,5,9.001z M8,9.001c-0.553,0-1-0.446-1-1
			c0-0.553,0.447-1,1-1c0.553,0,1,0.447,1,1C9,8.555,8.553,9.001,8,9.001z M11,9.001c-0.553,0-1-0.446-1-1c0-0.553,0.447-1,1-1
			s1,0.447,1,1C12,8.555,11.553,9.001,11,9.001z"/>
	</g>
</g>
</svg>
