<?xml version="1.0" encoding="utf-8"?>
<!-- Generator: Adobe Illustrator 15.0.0, SVG Export Plug-In . SVG Version: 6.00 Build 0)  -->
<!DOCTYPE svg PUBLIC "-//W3C//DTD SVG 1.1//EN" "http://www.w3.org/Graphics/SVG/1.1/DTD/svg11.dtd">
<svg version="1.1" id="图层_1" xmlns="http://www.w3.org/2000/svg" xmlns:xlink="http://www.w3.org/1999/xlink" x="0px" y="0px"
	 width="16px" height="16px" viewBox="0 0 16 16" enable-background="new 0 0 16 16" xml:space="preserve">
<g>
	<g>
		<path fill-rule="evenodd" clip-rule="evenodd" fill="#D84B38" d="M9.324,8l6.401-6.402c0.365-0.366,0.365-0.959,0-1.325
			c-0.366-0.366-0.958-0.366-1.324,0L8,6.676L1.598,0.274c-0.366-0.366-0.958-0.366-1.324,0s-0.366,0.958,0,1.325L6.676,8
			l-6.401,6.402c-0.366,0.366-0.366,0.958,0,1.324c0.366,0.365,0.958,0.365,1.324,0L8,9.324l6.401,6.402
			c0.366,0.365,0.958,0.365,1.324,0c0.365-0.366,0.365-0.958,0-1.324L9.324,8z"/>
	</g>
</g>
</svg>
