<?xml version="1.0" encoding="utf-8"?>
<!-- Generator: Adobe Illustrator 16.0.0, SVG Export Plug-In . SVG Version: 6.00 Build 0)  -->
<!DOCTYPE svg PUBLIC "-//W3C//DTD SVG 1.1//EN" "http://www.w3.org/Graphics/SVG/1.1/DTD/svg11.dtd">
<svg version="1.1" id="图层_1" xmlns="http://www.w3.org/2000/svg" xmlns:xlink="http://www.w3.org/1999/xlink" x="0px" y="0px"
	 width="130px" height="30px" viewBox="0 0 130 30" enable-background="new 0 0 130 30" xml:space="preserve">
<g>
	<polygon fill="#0A7FF2" points="78.225,15 78.225,4.131 74.066,4.131 74.066,15 68.342,30 72.5,30 76.156,20.423 79.842,30 84,30 	
		"/>
	<polygon fill="#0A7FF2" points="87.598,4.979 84.543,30 88.725,30 91.779,4.979 	"/>
	<path fill="#0A7FF2" d="M83.951,0h-0.002h-4.154h-6.574h-0.719h-4.154h-0.006v2.065h0.006v13.771c0,0.584-0.473,1.057-1.055,1.057
		h1.055h4.154V2.065h7.293v14.816h2.545c0.889,0,1.609-0.721,1.609-1.609V2.065h0.002V1.018C83.971,0.452,84.434,0,85.004,0H83.951z
		"/>
	<path fill="#0A7FF2" d="M96.539,1.057C96.539,0.474,97.012,0,97.596,0h-1.057h-4.17v2.065h-7.291v1.486h7.291v24.962h-1.006V30
		h2.072h1.797c0.723,0,1.307-0.722,1.307-1.61V3.552h1.074V2.065h-1.074V1.057z"/>
	<path fill="#0A7FF2" d="M18.26,1.057C18.26,0.474,18.733,0,19.316,0H18.26h-5.134v13.443L1.05,30h5.135l9.508-13.036L25.202,30
		h5.135L18.26,13.443V1.057z"/>
	<path fill="#0A7FF2" d="M4.582,14.014c0.889,0,1.609-0.721,1.609-1.61V3.366c0-0.583,0.473-1.057,1.056-1.057H6.19H1.056v10.647
		c0,0.584-0.473,1.057-1.056,1.057h1.056H4.582z"/>
	<path fill="#0A7FF2" d="M25.206,2.31v10.647c0,0.584-0.473,1.057-1.056,1.057h1.056h3.525c0.889,0,1.609-0.721,1.609-1.61V3.366
		c0-0.583,0.473-1.057,1.056-1.057h-1.056H25.206z"/>
	<polygon fill="#FF7043" points="45.917,5.226 40.648,8.286 40.652,5.896 44.881,3.439 	"/>
	<polyline fill="#FF7043" points="63.375,0 49.097,8.293 48.061,6.507 59.267,0 	"/>
	
		<rect x="43.922" y="4.83" transform="matrix(-0.8647 -0.5023 0.5023 -0.8647 84.6377 34.5251)" fill="#FF7043" width="6.093" height="2.065"/>
	<path fill="#0A7FF2" d="M63.685,24.548v-1.486H51.61v-4.073h12.075v-1.486H51.61v-2.729c0-0.583,0.473-1.057,1.056-1.057H51.61
		h-5.135v3.785h-7.204l1.527-3.201c0.223-0.351,0.615-0.584,1.062-0.584h-0.783h-0.01h-4.148l-2.513,5.271h3.141
		c0.065,0,0.13-0.006,0.195-0.014v0.014h8.733v4.073H34.399v1.486h12.076v3.966H34.399V30h29.286v-1.486H51.61v-3.966H63.685z"/>
	<path fill="#0A7FF2" d="M35.78,12.285v0.004h22.052h0.718h2.492h1.034c0.889,0,1.609-0.721,1.609-1.61v-9.54l-5.135,2.97v6.694
		H39.541V1.486h17.173L59.28,0H39.541h-5.135v11.229c0,0.584-0.473,1.057-1.056,1.057h1.056H35.78z"/>
	<rect x="111.443" fill="#0A7FF2" width="18.557" height="1.486"/>
	<polygon fill="#0A7FF2" points="118.146,13.122 111.436,13.122 111.436,14.608 118.146,14.608 118.146,28.514 111.449,28.514 
		111.449,30 129.977,30 129.977,28.514 123.281,28.514 123.281,14.608 129.992,14.608 129.992,13.122 123.281,13.122 	"/>
	<polygon fill="#0A7FF2" points="130,1.486 124.865,1.486 111.443,11.694 116.578,11.694 120.721,8.543 124.865,11.694 130,11.694 
		123.289,6.59 	"/>
	<path fill="#0A7FF2" d="M110.645,0h-0.793l0,0h-4.158l-4.553,9.539l0.162-0.344c-0.213,0.391-0.627,0.656-1.104,0.656h0.791l0,0
		h4.145l-4.211,8.816l0.117-0.245c-0.213,0.391-0.627,0.656-1.104,0.656h0.791h0.002h1.33l0,0h7.529v-1.486h-3.994l3.686-7.719
		c0.215-0.386,0.625-0.646,1.098-0.646h-0.789h-0.004h-4.141l4.371-9.155l-0.277,0.584C109.752,0.266,110.166,0,110.645,0"/>
	<path fill="#0A7FF2" d="M100.451,30h0.793l0.313-0.656C101.344,29.734,100.928,30,100.451,30"/>
	<path fill="#0A7FF2" d="M109.586,21.183h-4.154L101.244,30h3.141c0.621,0,1.188-0.357,1.453-0.919l3.453-7.271
		c0.219-0.374,0.623-0.627,1.088-0.627h-0.789H109.586z"/>
</g>
</svg>
