<?xml version="1.0" encoding="utf-8"?>
<!-- Generator: Adobe Illustrator 15.0.0, SVG Export Plug-In . SVG Version: 6.00 Build 0)  -->
<!DOCTYPE svg PUBLIC "-//W3C//DTD SVG 1.1//EN" "http://www.w3.org/Graphics/SVG/1.1/DTD/svg11.dtd">
<svg version="1.1" id="图层_1" xmlns="http://www.w3.org/2000/svg" xmlns:xlink="http://www.w3.org/1999/xlink" x="0px" y="0px"
	 width="18px" height="18px" viewBox="0 0 18 18" enable-background="new 0 0 18 18" xml:space="preserve">
<path fill="#BBBBBB" d="M8.329,14.638c3.539,0,6.407-2.85,6.407-6.364c0-3.515-2.868-6.364-6.407-6.364
	c-3.538,0-6.407,2.849-6.407,6.364C1.922,11.788,4.791,14.638,8.329,14.638L8.329,14.638z M14.805,13.478l3.007,2.986
	c0.251,0.249,0.251,0.652,0,0.9l-0.453,0.449c-0.251,0.248-0.656,0.248-0.906,0l-3.021-3c-3.488,2.686-8.479,2.203-11.38-1.102
	c-2.9-3.304-2.703-8.281,0.449-11.349c3.153-3.067,8.167-3.16,11.432-0.21C17.198,5.102,17.581,10.068,14.805,13.478L14.805,13.478z
	 M14.805,13.478"/>
</svg>
