<?xml version="1.0" encoding="utf-8"?>
<!-- Generator: Adobe Illustrator 15.0.0, SVG Export Plug-In . SVG Version: 6.00 Build 0)  -->
<!DOCTYPE svg PUBLIC "-//W3C//DTD SVG 1.1//EN" "http://www.w3.org/Graphics/SVG/1.1/DTD/svg11.dtd">
<svg version="1.1" id="图层_1" xmlns="http://www.w3.org/2000/svg" xmlns:xlink="http://www.w3.org/1999/xlink" x="0px" y="0px"
	 width="15px" height="15px" viewBox="0 0 15 15" enable-background="new 0 0 15 15" xml:space="preserve">
<rect x="-412.5" y="-710.5" fill="none" width="664.8" height="666.96"/>
<path fill="#9BADC7" d="M0.428,8.995C0.15,9.271,0,9.643,0,10.023v3.82C0,14.607,0.393,15,1.155,15l3.857-0.023
	c0.393,0,0.763-0.16,1.028-0.428l6.133-6.143l-5.59-5.59L0.428,8.995z M5.579,13.672c-0.22,0.221-0.566,0.221-0.774,0l-3.488-3.486
	c-0.219-0.221-0.219-0.564,0-0.772c0.22-0.222,0.566-0.222,0.774,0l3.488,3.485C5.787,13.105,5.787,13.453,5.579,13.672
	L5.579,13.672z M14.334,3.06l-2.391-2.401c-0.879-0.878-2.313-0.878-3.2,0L7.427,1.975l5.591,5.589l1.307-1.316
	C15.225,5.369,15.225,3.938,14.334,3.06L14.334,3.06z"/>
</svg>
