<?xml version="1.0" encoding="utf-8"?>
<!-- Generator: Adobe Illustrator 15.0.0, SVG Export Plug-In . SVG Version: 6.00 Build 0)  -->
<!DOCTYPE svg PUBLIC "-//W3C//DTD SVG 1.1//EN" "http://www.w3.org/Graphics/SVG/1.1/DTD/svg11.dtd">
<svg version="1.1" id="图层_1" xmlns="http://www.w3.org/2000/svg" xmlns:xlink="http://www.w3.org/1999/xlink" x="0px" y="0px"
	 width="176px" height="42px" viewBox="0 0 176 42" enable-background="new 0 0 176 42" xml:space="preserve">
<polygon fill="#FFFFFF" points="105.651,21.392 105.651,6.899 100.103,6.899 100.103,21.392 92.462,41.392 98.011,41.392 
	102.89,28.621 107.811,41.392 113.36,41.392 "/>
<polygon fill="#FFFFFF" points="118.162,8.031 114.083,41.392 119.666,41.392 123.744,8.031 "/>
<path fill="#FFFFFF" d="M113.293,1.392h-0.003h-5.543h-8.775h-0.958H92.47h-0.008v2.754h0.008v18.362
	c0,0.778-0.631,1.408-1.409,1.408h1.409h5.544V4.146h9.733v19.756h3.396c1.187,0,2.147-0.962,2.147-2.146V4.146h0.003V2.749
	c0.027-0.754,0.646-1.357,1.406-1.357H113.293z"/>
<path fill="#FFFFFF" d="M130.097,2.8c0-0.778,0.631-1.409,1.408-1.409h-1.408h-5.567v2.754h-9.731v1.981h9.731v33.282h-1.341v1.982
	h2.764l0,0h2.399c0.964,0,1.745-0.962,1.745-2.148V6.127h1.433V4.146h-1.433V2.8z"/>
<path fill="#FFFFFF" d="M25.618,2.8c0-0.778,0.63-1.409,1.409-1.409h-1.409h-6.854v17.924L2.646,41.392H9.5L22.191,24.01
	l12.691,17.382h6.853L25.618,19.316V2.8z"/>
<path fill="#FFFFFF" d="M7.36,20.077c1.186,0,2.147-0.961,2.147-2.147V5.88c0-0.778,0.631-1.409,1.409-1.409H9.508H2.655v14.197
	c0,0.778-0.631,1.409-1.409,1.409h1.409H7.36z"/>
<path fill="#FFFFFF" d="M34.888,4.471v14.197c0,0.778-0.631,1.409-1.409,1.409h1.409h4.706c1.186,0,2.147-0.962,2.147-2.148V5.88
	c0-0.778,0.631-1.409,1.409-1.409h-1.409H34.888z"/>
<polygon fill="#FF7043" points="62.53,8.359 55.498,12.439 55.504,9.252 61.147,5.977 "/>
<polyline fill="#FF7043" points="85.832,1.392 66.774,12.449 65.393,10.067 80.348,1.392 "/>
<rect x="59.87" y="7.832" transform="matrix(-0.8649 -0.5019 0.5019 -0.8649 114.6128 49.2603)" fill="#FF7043" width="8.13" height="2.754"/>
<path fill="#FFFFFF" d="M86.245,34.122v-1.981H70.128v-5.433h16.117v-1.981H70.128v-3.637c0-0.778,0.631-1.409,1.409-1.409h-1.409
	h-6.854v5.046H53.66l2.039-4.267c0.297-0.468,0.821-0.779,1.417-0.779H56.07h-0.013h-5.536l-3.354,7.027h4.192
	c0.088,0,0.174-0.006,0.26-0.017v0.017h11.656v5.433H47.158v1.981h16.117v5.288H47.158v1.981h39.087V39.41H70.128v-5.288H86.245z"/>
<path fill="#FFFFFF" d="M49.001,17.772v0.005h29.432h0.958h3.326h1.379c1.187,0,2.148-0.961,2.148-2.147V2.909l-6.854,3.96v8.926
	H54.021V3.373h22.92l3.425-1.981H54.021h-6.854v14.971c0,0.778-0.631,1.409-1.409,1.409h1.409H49.001z"/>
<rect x="149.987" y="1.392" fill="#FFFFFF" width="24.768" height="1.981"/>
<polygon fill="#FFFFFF" points="158.934,18.887 149.977,18.887 149.977,20.869 158.934,20.869 158.934,39.409 149.996,39.409 
	149.996,41.392 174.724,41.392 174.724,39.409 165.786,39.409 165.786,20.869 174.743,20.869 174.743,18.887 165.786,18.887 "/>
<polygon fill="#FFFFFF" points="174.755,3.373 167.901,3.373 149.987,16.983 156.841,16.983 162.371,12.782 167.901,16.983 
	174.755,16.983 165.798,10.178 "/>
<path fill="#FFFFFF" d="M148.921,1.392h-1.059l0,0h-5.549l-6.077,12.718l0.218-0.458c-0.285,0.521-0.839,0.875-1.475,0.875h1.057
	h0.002h5.528l-5.617,11.754l0.155-0.327c-0.284,0.521-0.838,0.876-1.474,0.876h1.057h0.001h1.777h10.048v-1.981h-5.331l4.919-10.292
	c0.286-0.514,0.835-0.863,1.466-0.863h-1.054h-0.004h-5.526l5.834-12.208l-0.371,0.78C147.731,1.745,148.284,1.392,148.921,1.392"/>
<path fill="#FFFFFF" d="M135.317,41.392h1.058l0.416-0.875C136.507,41.037,135.953,41.392,135.317,41.392"/>
<path fill="#FFFFFF" d="M147.509,29.636h-5.544l-5.589,11.756h4.192c0.828,0,1.583-0.478,1.939-1.226l4.608-9.694
	c0.291-0.5,0.831-0.836,1.45-0.836h-1.053H147.509z"/>
</svg>
