<?xml version="1.0" encoding="utf-8"?>
<!-- Generator: Adobe Illustrator 15.0.0, SVG Export Plug-In . SVG Version: 6.00 Build 0)  -->
<!DOCTYPE svg PUBLIC "-//W3C//DTD SVG 1.1//EN" "http://www.w3.org/Graphics/SVG/1.1/DTD/svg11.dtd">
<svg version="1.1" id="图层_1" xmlns="http://www.w3.org/2000/svg" xmlns:xlink="http://www.w3.org/1999/xlink" x="0px" y="0px"
	 width="50px" height="50px" viewBox="0 0 50 50" enable-background="new 0 0 50 50" xml:space="preserve">
<path fill="#D82620" d="M23.468,34.222c-1.166-0.645-2.001-1.777-2.048-3.11c-0.069-2.489,1.787-3.711,2.885-5.38
	c1.572-2.398,1.144-3.888,1.144-3.888s1.312,0.689,2.074,3.243c0.237,0.757,0.286,1.515,0.214,2.226
	c-0.117,1.799-0.953,3.422-0.953,3.422s1.455-0.29,1.859-2.757c0.67,0.645,1.289,1.577,1.359,2.556
	c0.119,1.688-0.951,3.243-2.574,3.909c2.809-0.6,4.816-2.821,5.508-4.443c0.881-2.042,0.643-3.864,0.498-5.443
	c-0.189-2.154,0.619-3.755,0.619-3.755s-1.549,0.423-2.693,2.177c-0.523,0.801-0.738,1.978-0.738,1.978S30.74,23.912,30,22
	c-0.736-1.866-1.406-2.531-1.813-3.908c-0.522-1.846,0.644-3.646,0.644-3.646s-4.622,0.802-6.721,4.555
	c-1.859,3.332-1.096,5.334-1.096,5.334s-0.788-0.69-1.192-1.646c-0.404-0.956-0.314-1.821-0.314-1.821s-3.285,3.377-1.687,7.622
	C18.894,31.465,20.966,33.42,23.468,34.222"/>
</svg>
