<?xml version="1.0" standalone="no"?><!DOCTYPE svg PUBLIC "-//W3C//DTD SVG 1.1//EN"
        "http://www.w3.org/Graphics/SVG/1.1/DTD/svg11.dtd">
<svg class="icon" width="200px" height="153.41px" viewBox="0 0 1335 1024" version="1.1"
     xmlns="http://www.w3.org/2000/svg">
    <path d="M39.23973 862.646229a31.391784 31.391784 0 0 1-23.857756-51.796444c10.673207-12.242796 261.493562-301.988964 474.015941-162.295524 94.175353 62.783568 163.551196 60.272226 256.156959-5.022685a31.391784 31.391784 0 1 1 36.100552 51.168608c-113.638259 80.04905-211.266708 81.932557-326.788473 6.278357C288.176579 591.421214 65.294911 847.578173 62.783568 851.659105a31.391784 31.391784 0 0 1-23.543838 10.987124z m1255.671367-222.253832a31.391784 31.391784 0 0 1-25.741263-13.498467c-62.783568-89.466585-142.5187-150.680564-205.302268-156.958921a65.608829 65.608829 0 0 0-55.563458 18.207235l-75.340282 73.456775a31.391784 31.391784 0 1 1-43.63458-45.204169l74.712446-72.82894A125.567137 125.567137 0 0 1 1067.320662 408.093194c81.618639 7.22011 177.991416 77.223789 251.134274 182.700184a31.391784 31.391784 0 0 1-25.741263 49.285101z"
          fill="#E1E5EC"/>
    <path d="M1233.697118 1024h-376.70141l-128.706315-3.767014 205.930104-376.70141-219.742489-251.134274L960.902514 0h272.794604a102.023299 102.023299 0 0 1 102.023299 102.023299v819.953402a102.023299 102.023299 0 0 1-102.023299 102.023299z m-376.70141-78.47946h376.70141a23.543838 23.543838 0 0 0 23.543838-23.543839V102.023299a23.543838 23.543838 0 0 0-23.543838-23.543839H1004.537094l-193.059473 304.186389 219.742489 251.134274z m-260.551809 78.47946H102.023299A102.023299 102.023299 0 0 1 0 921.976701V102.023299A102.023299 102.023299 0 0 1 102.023299 0h763.134273l-243.286327 413.429798 219.742489 252.703862zM102.023299 78.47946a23.543838 23.543838 0 0 0-23.543839 23.543839v819.953402a23.543838 23.543838 0 0 0 23.543839 23.543839h452.35561l188.350705-273.736359-219.74249-249.564684 202.477008-345.309626z"
          fill="#D9DEE6"/>
    <path d="M296.338443 428.183936a125.567137 125.567137 0 1 1 125.567136-125.567136 125.567137 125.567137 0 0 1-125.567136 125.567136z m0-188.350705a62.783568 62.783568 0 1 0 62.783568 62.783569 62.783568 62.783568 0 0 0-62.783568-62.783569z"
          fill="#D9DEE6"/>
</svg>